%
M48
M72
T01C0.03200
T02C0.04000
%
T01
X67600Y147600
X77600Y147600
X87600Y147600
X97600Y147600
X107600Y147600
X117600Y147600
X127600Y147600
X137600Y147600
X147600Y147600
X157600Y147600
X167600Y147600
X177600Y147600
X187600Y147600
X197600Y147600
X197600Y177600
X187600Y177600
X177600Y177600
X167600Y177600
X157600Y177600
X147600Y177600
X137600Y177600
X127600Y177600
X117600Y177600
X107600Y177600
X97600Y177600
X87600Y177600
X77600Y177600
X67600Y177600
X12600Y122600
X32600Y122600
X157600Y132600
X147600Y132600
X172600Y122600
X172600Y132600
X137600Y122600
X137600Y132600
X217600Y162600
X217600Y172600
X92600Y272600
X112600Y272600
X77600Y222600
X87600Y222600
X137600Y222600
X137600Y252600
X97600Y222600
X107600Y222600
X127600Y222600
X117600Y222600
X127600Y252600
X117600Y252600
X107600Y252600
X97600Y252600
X87600Y252600
X77600Y252600
X117600Y112600
X97600Y112600
X37600Y147600
X37600Y137600
X157600Y187600
X177600Y187600
X142600Y192600
X142600Y202600
T02
X19800Y101500
X19800Y83700
X45400Y101500
X45400Y83700
X42600Y157600
X42600Y167600
X74800Y101500
X74800Y83700
X100400Y101500
X100400Y83700
X207600Y22600
X197600Y22600
X187600Y22600
X177600Y22600
X167600Y22600
X157600Y22600
X147600Y22600
X207600Y267600
X207600Y257600
X207600Y247600
X207600Y237600
X207600Y227600
X207600Y217600
X207600Y207600
X207600Y197600
X42600Y127600
X52600Y127600
X62600Y127600
M30
