G75*
%MOIN*%
%OFA0B0*%
%FSLAX25Y25*%
%IPPOS*%
%LPD*%
%AMOC8*
5,1,8,0,0,1.08239X$1,22.5*
%
%ADD10C,0.05200*%
%ADD11OC8,0.05200*%
%ADD12C,0.05200*%
%ADD13OC8,0.06300*%
%ADD14C,0.06000*%
%ADD15C,0.03200*%
D10*
X0067600Y0145000D02*
X0067600Y0150200D01*
X0077600Y0150200D02*
X0077600Y0145000D01*
X0087600Y0145000D02*
X0087600Y0150200D01*
X0097600Y0150200D02*
X0097600Y0145000D01*
X0107600Y0145000D02*
X0107600Y0150200D01*
X0117600Y0150200D02*
X0117600Y0145000D01*
X0127600Y0145000D02*
X0127600Y0150200D01*
X0137600Y0150200D02*
X0137600Y0145000D01*
X0147600Y0145000D02*
X0147600Y0150200D01*
X0157600Y0150200D02*
X0157600Y0145000D01*
X0167600Y0145000D02*
X0167600Y0150200D01*
X0177600Y0150200D02*
X0177600Y0145000D01*
X0187600Y0145000D02*
X0187600Y0150200D01*
X0197600Y0150200D02*
X0197600Y0145000D01*
X0197600Y0175000D02*
X0197600Y0180200D01*
X0187600Y0180200D02*
X0187600Y0175000D01*
X0177600Y0175000D02*
X0177600Y0180200D01*
X0167600Y0180200D02*
X0167600Y0175000D01*
X0157600Y0175000D02*
X0157600Y0180200D01*
X0147600Y0180200D02*
X0147600Y0175000D01*
X0137600Y0175000D02*
X0137600Y0180200D01*
X0127600Y0180200D02*
X0127600Y0175000D01*
X0117600Y0175000D02*
X0117600Y0180200D01*
X0107600Y0180200D02*
X0107600Y0175000D01*
X0097600Y0175000D02*
X0097600Y0180200D01*
X0087600Y0180200D02*
X0087600Y0175000D01*
X0077600Y0175000D02*
X0077600Y0180200D01*
X0067600Y0180200D02*
X0067600Y0175000D01*
X0077600Y0220000D02*
X0077600Y0225200D01*
X0087600Y0225200D02*
X0087600Y0220000D01*
X0097600Y0220000D02*
X0097600Y0225200D01*
X0107600Y0225200D02*
X0107600Y0220000D01*
X0117600Y0220000D02*
X0117600Y0225200D01*
X0127600Y0225200D02*
X0127600Y0220000D01*
X0137600Y0220000D02*
X0137600Y0225200D01*
X0140000Y0202600D02*
X0145200Y0202600D01*
X0145200Y0192600D02*
X0140000Y0192600D01*
X0137600Y0250000D02*
X0137600Y0255200D01*
X0127600Y0255200D02*
X0127600Y0250000D01*
X0117600Y0250000D02*
X0117600Y0255200D01*
X0107600Y0255200D02*
X0107600Y0250000D01*
X0097600Y0250000D02*
X0097600Y0255200D01*
X0087600Y0255200D02*
X0087600Y0250000D01*
X0077600Y0250000D02*
X0077600Y0255200D01*
D11*
X0092600Y0272600D03*
X0112600Y0272600D03*
X0157600Y0187600D03*
X0177600Y0187600D03*
X0117600Y0112600D03*
X0097600Y0112600D03*
X0037600Y0137600D03*
X0037600Y0147600D03*
X0032600Y0122600D03*
X0012600Y0122600D03*
D12*
X0147600Y0132600D03*
X0157600Y0132600D03*
D13*
X0172600Y0132600D03*
X0172600Y0122600D03*
X0137600Y0122600D03*
X0137600Y0132600D03*
X0217600Y0162600D03*
X0217600Y0172600D03*
D14*
X0210600Y0197600D02*
X0204600Y0197600D01*
X0204600Y0207600D02*
X0210600Y0207600D01*
X0210600Y0217600D02*
X0204600Y0217600D01*
X0204600Y0227600D02*
X0210600Y0227600D01*
X0210600Y0237600D02*
X0204600Y0237600D01*
X0204600Y0247600D02*
X0210600Y0247600D01*
X0210600Y0257600D02*
X0204600Y0257600D01*
X0204600Y0267600D02*
X0210600Y0267600D01*
X0103400Y0101500D02*
X0097400Y0101500D01*
X0097400Y0083700D02*
X0103400Y0083700D01*
X0077800Y0083700D02*
X0071800Y0083700D01*
X0071800Y0101500D02*
X0077800Y0101500D01*
X0062600Y0124600D02*
X0062600Y0130600D01*
X0052600Y0130600D02*
X0052600Y0124600D01*
X0042600Y0124600D02*
X0042600Y0130600D01*
X0045600Y0157600D02*
X0039600Y0157600D01*
X0039600Y0167600D02*
X0045600Y0167600D01*
X0048400Y0101500D02*
X0042400Y0101500D01*
X0042400Y0083700D02*
X0048400Y0083700D01*
X0022800Y0083700D02*
X0016800Y0083700D01*
X0016800Y0101500D02*
X0022800Y0101500D01*
X0147600Y0025600D02*
X0147600Y0019600D01*
X0157600Y0019600D02*
X0157600Y0025600D01*
X0167600Y0025600D02*
X0167600Y0019600D01*
X0177600Y0019600D02*
X0177600Y0025600D01*
X0187600Y0025600D02*
X0187600Y0019600D01*
X0197600Y0019600D02*
X0197600Y0025600D01*
X0207600Y0025600D02*
X0207600Y0019600D01*
D15*
X0012600Y0057600D02*
X0002600Y0067600D01*
X0002600Y0112600D01*
X0012600Y0122600D01*
X0012600Y0147600D01*
X0022600Y0157600D01*
X0042600Y0157600D01*
X0052600Y0157600D01*
X0057600Y0162600D01*
X0057600Y0182600D01*
X0062600Y0187600D01*
X0072600Y0187600D01*
X0077600Y0192600D01*
X0077600Y0197600D01*
X0082600Y0202600D01*
X0102600Y0202600D01*
X0102600Y0192600D01*
X0107600Y0187600D01*
X0107600Y0177600D01*
X0117600Y0177600D02*
X0117600Y0207600D01*
X0112600Y0212600D01*
X0112600Y0237600D01*
X0107600Y0242600D01*
X0092600Y0242600D01*
X0087600Y0247600D01*
X0087600Y0252600D01*
X0077600Y0252600D01*
X0067600Y0262600D02*
X0077600Y0272600D01*
X0092600Y0272600D01*
X0097600Y0267600D01*
X0097600Y0252600D01*
X0107600Y0252600D02*
X0122600Y0237600D01*
X0122600Y0212600D01*
X0127600Y0207600D01*
X0132600Y0207600D01*
X0137600Y0202600D01*
X0127600Y0192600D01*
X0127600Y0177600D01*
X0127600Y0167600D01*
X0122600Y0162600D01*
X0117600Y0162600D01*
X0112600Y0157600D01*
X0107600Y0157600D01*
X0102600Y0152600D01*
X0102600Y0137600D01*
X0087600Y0122600D01*
X0072600Y0122600D01*
X0051500Y0101500D01*
X0045400Y0101500D01*
X0019800Y0101500D01*
X0017600Y0092600D02*
X0007600Y0102600D01*
X0007600Y0107600D01*
X0012600Y0112600D01*
X0022600Y0112600D01*
X0032600Y0122600D01*
X0032600Y0132600D01*
X0027600Y0137600D01*
X0027600Y0142600D01*
X0032600Y0147600D01*
X0037600Y0147600D01*
X0067600Y0147600D01*
X0077600Y0147600D02*
X0077600Y0142600D01*
X0072600Y0137600D01*
X0057600Y0137600D01*
X0052600Y0132600D01*
X0052600Y0127600D01*
X0042600Y0127600D02*
X0042600Y0132600D01*
X0037600Y0137600D01*
X0062600Y0127600D02*
X0077600Y0127600D01*
X0087600Y0137600D01*
X0087600Y0147600D01*
X0107600Y0147600D02*
X0107600Y0132600D01*
X0097600Y0122600D01*
X0097600Y0112600D01*
X0072600Y0112600D01*
X0062600Y0102600D01*
X0062600Y0087600D01*
X0067600Y0082600D01*
X0073700Y0082600D01*
X0074800Y0083700D01*
X0100400Y0083700D01*
X0100400Y0101500D02*
X0074800Y0101500D01*
X0100400Y0101500D02*
X0113700Y0101500D01*
X0117600Y0097600D01*
X0117600Y0062600D01*
X0112600Y0057600D01*
X0012600Y0057600D01*
X0019800Y0083700D02*
X0045400Y0083700D01*
X0045400Y0089800D01*
X0042600Y0092600D01*
X0017600Y0092600D01*
X0042600Y0167600D02*
X0042600Y0197600D01*
X0067600Y0222600D01*
X0067600Y0262600D01*
X0107600Y0267600D02*
X0107600Y0252600D01*
X0107600Y0267600D02*
X0112600Y0272600D01*
X0107600Y0222600D02*
X0107600Y0207600D01*
X0102600Y0202600D01*
X0127600Y0167600D02*
X0137600Y0157600D01*
X0137600Y0147600D01*
X0137600Y0142600D01*
X0127600Y0132600D01*
X0127600Y0127600D01*
X0132600Y0122600D01*
X0137600Y0122600D01*
X0172600Y0122600D01*
X0172600Y0132600D02*
X0157600Y0132600D01*
X0157600Y0147600D01*
X0147600Y0147600D02*
X0147600Y0132600D01*
X0137600Y0132600D01*
X0122600Y0142600D02*
X0127600Y0147600D01*
X0122600Y0142600D02*
X0122600Y0117600D01*
X0127600Y0112600D01*
X0177600Y0112600D01*
X0182600Y0117600D01*
X0182600Y0152600D01*
X0177600Y0157600D01*
X0147600Y0157600D01*
X0137600Y0167600D01*
X0137600Y0177600D01*
X0147600Y0177600D01*
X0162600Y0162600D01*
X0217600Y0162600D01*
X0207600Y0152600D01*
X0207600Y0022600D01*
X0207600Y0012600D01*
X0197600Y0002600D01*
X0127600Y0002600D01*
X0117600Y0012600D01*
X0117600Y0062600D01*
X0137600Y0032600D02*
X0132600Y0027600D01*
X0132600Y0017600D01*
X0137600Y0012600D01*
X0172600Y0012600D01*
X0177600Y0017600D01*
X0167600Y0022600D02*
X0167600Y0037600D01*
X0187600Y0037600D01*
X0197600Y0047600D01*
X0197600Y0147600D01*
X0187600Y0147600D02*
X0187600Y0047600D01*
X0182600Y0042600D01*
X0162600Y0042600D01*
X0152600Y0032600D01*
X0137600Y0032600D01*
X0122600Y0017600D02*
X0122600Y0102600D01*
X0117600Y0107600D01*
X0117600Y0112600D01*
X0117600Y0122600D01*
X0112600Y0127600D01*
X0112600Y0157600D01*
X0142600Y0192600D02*
X0147600Y0187600D01*
X0157600Y0187600D01*
X0157600Y0197600D02*
X0152600Y0202600D01*
X0142600Y0202600D01*
X0137600Y0202600D01*
X0157600Y0197600D02*
X0207600Y0197600D01*
X0217600Y0187600D01*
X0217600Y0172600D01*
X0217600Y0162600D02*
X0222600Y0162600D01*
X0227600Y0167600D01*
X0227600Y0262600D01*
X0222600Y0267600D01*
X0207600Y0267600D01*
X0177600Y0187600D02*
X0177600Y0177600D01*
X0197600Y0022600D02*
X0197600Y0012600D01*
X0192600Y0007600D01*
X0132600Y0007600D01*
X0122600Y0017600D01*
M02*
